<svg id="WHITE" xmlns="http://www.w3.org/2000/svg" xmlns:xlink="http://www.w3.org/1999/xlink" viewBox="0 0 319.51 89.47"><defs><style>.cls-1{fill:none;}.cls-2{clip-path:url(#clip-path);}.cls-3{clip-path:url(#clip-path-2);}.cls-4{fill:#fff;}.cls-5{clip-path:url(#clip-path-3);}</style><clipPath id="clip-path"><rect class="cls-1" width="319.51" height="89.47"/></clipPath><clipPath id="clip-path-2"><rect class="cls-1" width="72" height="89.47"/></clipPath><clipPath id="clip-path-3"><rect class="cls-1" x="58.49" width="261.01" height="89.47"/></clipPath></defs><g id="H_Logo_WHITE"><g class="cls-2"><g class="cls-3"><g id="Icon"><path class="cls-4" d="M58.5,49.58l-1.67-1.34H51.92l-1.67,1.34v6l-5.81,3.13V48.15L42.77,46.8H38.6l-1.66,1.35V74.69l1.66.72,4.17-2.24,1.67-2.51v-6l5.81-3.13v6l1.67.72,4.91-2.64,1.67-2.52ZM38.6,66.23V63.41l4.17-2.24V64Zm0-18.08h4.17V59.56L38.6,61.8Zm0,25.64V67.85l4.17-2.24v5.94ZM50.25,60l-5.81,3.12h0V60.28l5.81-3.13Zm1.67-10.39h4.91V52l-4.91,2.65ZM56.83,64l-4.91,2.64V60.69L56.83,58Zm-4.91-4.92V56.25l4.91-2.64v2.82Z"/><path class="cls-4" d="M13.5,63.09l1.67,2.52,18.23,9.8,1.66-.72V71.87L33.4,69.36,21.75,63.1V49.58l-1.67-1.34H15.17L13.5,49.58Zm1.67-13.51h4.91V62.2l-4.91-2.64Zm0,11.59,4.91,2.65v2.81L15.17,64ZM33.4,73.79,21.75,67.53h0V64.71L33.4,71Z"/><path class="cls-4" d="M13.5,16.31V42.93l1.67,1.34h4.91l1.67-1.34V29.32L31,43.94l2.73,1.35h6.37l10.13-16V42.93l1.67,1.34h4.91l1.67-1.34V16.31H56.63l-4.71,7.43V16.31H50.25L36,38.78,21.75,16.31H20.08v7.43l-4.71-7.43Zm6.58,26.62H15.17v-24l4.91,7.75Zm12.81,1L21.75,26.37V19.26L37.4,43.94Zm6.3-.13-2.25-3.55,13.31-21v7.11Zm17.64-.88H51.92V26.69l4.91-7.75Z"/></g></g><g class="cls-5"><g id="Wordmark"><path class="cls-4" d="M94.27,38.21c.35.77.69,1.57,1,2.39.32-.84.66-1.65,1-2.44s.73-1.55,1.11-2.29L108,14.93a3.5,3.5,0,0,1,.59-.84,1.86,1.86,0,0,1,.66-.44,2.25,2.25,0,0,1,.84-.14h8.43V54.9h-8.47V31.07c0-1.15.06-2.4.17-3.75l-11,21.29a3.56,3.56,0,0,1-1.38,1.51,3.84,3.84,0,0,1-2,.51h-1.3a3.84,3.84,0,0,1-2-.51,3.56,3.56,0,0,1-1.38-1.51l-11-21.32c.08.67.14,1.33.17,2s.06,1.25.06,1.8V54.9H72V13.51h8.43a2.25,2.25,0,0,1,.84.14,1.78,1.78,0,0,1,.66.44,3.5,3.5,0,0,1,.59.84L93.18,36C93.56,36.68,93.92,37.43,94.27,38.21Z"/><path class="cls-4" d="M166.77,54.9h-7.45a3.44,3.44,0,0,1-2.06-.59,3,3,0,0,1-1.12-1.49L153.7,45.6H138l-2.45,7.22a3.29,3.29,0,0,1-3.12,2.08h-7.51l16-41.42h9.84ZM140.16,39.06h11.32l-3.81-11.34-.87-2.54c-.33-1-.66-2-1-3.17-.3,1.15-.61,2.22-.94,3.21s-.62,1.84-.91,2.56Z"/><path class="cls-4" d="M182.58,39.57V54.9H173V13.48h13.47a27.84,27.84,0,0,1,7.66.92A14.45,14.45,0,0,1,199.28,17a9.72,9.72,0,0,1,2.91,3.89,12.86,12.86,0,0,1,.91,4.89,13.19,13.19,0,0,1-.54,3.81A11.55,11.55,0,0,1,201,32.88a12.39,12.39,0,0,1-2.61,2.71,13.93,13.93,0,0,1-3.57,2,9.27,9.27,0,0,1,1.81,1.19A7.31,7.31,0,0,1,198,40.48l8.81,14.42h-8.7a3.68,3.68,0,0,1-3.46-1.82l-6.88-12a3,3,0,0,0-1.07-1.14,3.66,3.66,0,0,0-1.72-.34Zm0-6.62h3.86a9.92,9.92,0,0,0,3.34-.5A6,6,0,0,0,192,31.07,5.09,5.09,0,0,0,193.32,29a7.73,7.73,0,0,0,.4-2.54,5.31,5.31,0,0,0-1.78-4.26c-1.18-1-3-1.54-5.5-1.54h-3.86Z"/><path class="cls-4" d="M242,13.48V21.1H230.33V54.9h-9.61V21.1H209.07V13.48Z"/><path class="cls-4" d="M259.33,54.9h-9.67V13.48h9.67Z"/><path class="cls-4" d="M276,13.54a2.3,2.3,0,0,1,.77.21,2.45,2.45,0,0,1,.66.44,8.33,8.33,0,0,1,.71.77l19.67,24.87c-.08-.8-.14-1.57-.17-2.32s-.06-1.45-.06-2.11V13.48H306V54.9h-5a4.57,4.57,0,0,1-1.88-.35,4,4,0,0,1-1.48-1.25L278.11,28.63c.06.72.11,1.43.15,2.12s.05,1.34.05,1.94V54.9h-8.47V13.48h5.06A7.63,7.63,0,0,1,276,13.54Z"/><path class="cls-4" d="M90,75.77V61.65h1.64V74.28h6.23v1.49Z"/><path class="cls-4" d="M109.62,75.77h-7.87V61.65h7.87V63.1h-6.23v4.55h5.86V69.1h-5.86v5.2h6.23Z"/><path class="cls-4" d="M120.45,68.37h4.8v6.87a16.41,16.41,0,0,1-2.28.54,17.66,17.66,0,0,1-2.68.18,6.49,6.49,0,0,1-5-1.91,7.51,7.51,0,0,1-1.79-5.34,8.06,8.06,0,0,1,.89-3.86,6,6,0,0,1,2.54-2.53,8.19,8.19,0,0,1,3.9-.88,10.72,10.72,0,0,1,4.21.83l-.64,1.45a9.4,9.4,0,0,0-3.68-.81,5.26,5.26,0,0,0-4,1.54,6,6,0,0,0-1.45,4.26,6.08,6.08,0,0,0,1.4,4.33,5.36,5.36,0,0,0,4.1,1.48,12,12,0,0,0,2.87-.34V69.84h-3.16Z"/><path class="cls-4" d="M139,75.77l-1.76-4.49h-5.66l-1.73,4.49h-1.67l5.59-14.18h1.38l5.55,14.18Zm-2.27-6-1.64-4.38q-.32-.83-.66-2a18.51,18.51,0,0,1-.6,2l-1.67,4.38Z"/><path class="cls-4" d="M150.18,62.91a4.63,4.63,0,0,0-3.68,1.55,6.26,6.26,0,0,0-1.35,4.25,6.35,6.35,0,0,0,1.3,4.28,4.62,4.62,0,0,0,3.71,1.51,12.48,12.48,0,0,0,3.37-.53v1.44a10.33,10.33,0,0,1-3.62.55,6.13,6.13,0,0,1-4.82-1.89,7.8,7.8,0,0,1-1.7-5.38,8.57,8.57,0,0,1,.82-3.83,5.84,5.84,0,0,1,2.36-2.53,7.12,7.12,0,0,1,3.62-.89,8.78,8.78,0,0,1,3.89.81l-.7,1.41A7.52,7.52,0,0,0,150.18,62.91Z"/><path class="cls-4" d="M161.69,68.71l3.76-7.06h1.78l-4.71,8.64v5.48h-1.66v-5.4l-4.71-8.72H158Z"/><path class="cls-4" d="M190.84,75.77H189.2V69.12h-7.44v6.65h-1.64V61.65h1.64v6h7.44v-6h1.64Z"/><path class="cls-4" d="M208.46,68.69A7.78,7.78,0,0,1,206.74,74a6.92,6.92,0,0,1-9.58,0,7.82,7.82,0,0,1-1.7-5.38,7.77,7.77,0,0,1,1.7-5.35,6.19,6.19,0,0,1,4.83-1.9,6,6,0,0,1,4.76,1.94A7.74,7.74,0,0,1,208.46,68.69Zm-11.26,0A6.73,6.73,0,0,0,198.42,73,4.34,4.34,0,0,0,202,74.52,4.29,4.29,0,0,0,205.52,73a6.75,6.75,0,0,0,1.2-4.35,6.75,6.75,0,0,0-1.2-4.33A4.27,4.27,0,0,0,202,62.89a4.4,4.4,0,0,0-3.57,1.48A6.68,6.68,0,0,0,197.2,68.69Z"/><path class="cls-4" d="M213.09,75.77V61.65h1.64V74.28H221v1.49Z"/><path class="cls-4" d="M236.11,68.57a7.17,7.17,0,0,1-1.89,5.35,7.54,7.54,0,0,1-5.47,1.85h-3.91V61.65h4.33a6.32,6.32,0,0,1,6.94,6.92Zm-1.73.06A5.69,5.69,0,0,0,233,64.47a5.54,5.54,0,0,0-4.12-1.4h-2.39V74.35h2a6.07,6.07,0,0,0,4.42-1.45A5.72,5.72,0,0,0,234.38,68.63Z"/><path class="cls-4" d="M240.75,75.77V61.65h1.64V75.77Z"/><path class="cls-4" d="M258.78,75.77H256.9l-7.71-11.85h-.08c.1,1.39.15,2.66.15,3.82v8h-1.51V61.65h1.85l7.7,11.8h.08c0-.17,0-.73-.09-1.68s-.06-1.61-.05-2v-8.1h1.54Z"/><path class="cls-4" d="M270.36,68.37h4.8v6.87a16.41,16.41,0,0,1-2.28.54,17.8,17.8,0,0,1-2.69.18,6.47,6.47,0,0,1-5-1.91,7.51,7.51,0,0,1-1.79-5.34,8.06,8.06,0,0,1,.89-3.86,5.86,5.86,0,0,1,2.54-2.53,8.18,8.18,0,0,1,3.89-.88,10.77,10.77,0,0,1,4.22.83l-.64,1.45a9.43,9.43,0,0,0-3.68-.81,5.25,5.25,0,0,0-4,1.54,5.93,5.93,0,0,0-1.45,4.26,6.08,6.08,0,0,0,1.4,4.33,5.35,5.35,0,0,0,4.1,1.48,11.85,11.85,0,0,0,2.86-.34V69.84h-3.15Z"/><path class="cls-4" d="M288,72a3.48,3.48,0,0,1-1.35,2.91A5.9,5.9,0,0,1,283,76a9.06,9.06,0,0,1-3.87-.65V73.73a10.31,10.31,0,0,0,1.9.58,10.07,10.07,0,0,0,2,.21,4.14,4.14,0,0,0,2.47-.62,2.05,2.05,0,0,0,.83-1.73A2.24,2.24,0,0,0,286,71a2.64,2.64,0,0,0-1-.86,12.72,12.72,0,0,0-2.1-.9,6.77,6.77,0,0,1-2.82-1.67A3.72,3.72,0,0,1,279.3,65a3.15,3.15,0,0,1,1.22-2.6,5.07,5.07,0,0,1,3.25-1,9.49,9.49,0,0,1,3.87.78l-.51,1.42a8.9,8.9,0,0,0-3.4-.73,3.32,3.32,0,0,0-2,.56A1.85,1.85,0,0,0,281,65a2.37,2.37,0,0,0,.27,1.2,2.53,2.53,0,0,0,.91.86,11.24,11.24,0,0,0,2,.86,7.92,7.92,0,0,1,3.06,1.7A3.38,3.38,0,0,1,288,72Z"/></g></g></g></g></svg>